# xmcd CD database file
#
# Track frame offsets:
#	150
#	28746
#	75325
#	99121
#	118495
#	145873
#
# Disc length: 2335 seconds
#
# Revision: 0
# Processed by: cddbd v1.5.2PL0 Copyright (c) Steve Scherf et al.
# Submitted via: CDex 1.51
#
DISCID=44091d06
DTITLE=Phosphorescent - Live At The Music Hall Of Williamsburg - CD2
DYEAR=2015
DGENRE=Blues
TTITLE0=Joe Tex, These Taming Blues (Live)
TTITLE1=Los Angeles (Live)
TTITLE2=A Picture Of Our Torn Up Praise (Live)
TTITLE3=South (Of America) (Live)
TTITLE4=Wolves (Live)
TTITLE5=At Death, A Proclamation (Live)
EXTD=YEAR: 2015
EXTT0=
EXTT1=
EXTT2=
EXTT3=
EXTT4=
EXTT5=
PLAYORDER=
